<?xml version="1.0" standalone="no"?>
<!DOCTYPE svg PUBLIC "-//W3C//DTD SVG 20010904//EN"
 "http://www.w3.org/TR/2001/REC-SVG-20010904/DTD/svg10.dtd">
<svg version="1.0" xmlns="http://www.w3.org/2000/svg"
 width="48.000000pt" height="48.000000pt" viewBox="0 0 48.000000 48.000000"
 preserveAspectRatio="xMidYMid meet">

<g transform="translate(0.000000,48.000000) scale(0.100000,-0.100000)"
fill="#000000" stroke="none">
<path d="M15 191 c-12 -56 40 -141 102 -167 43 -18 203 -18 246 0 60 25 119
123 101 170 -5 14 -11 13 -45 -7 -21 -12 -40 -31 -41 -42 -3 -19 -12 -20 -136
-23 -114 -3 -133 -1 -138 13 -4 9 1 22 12 31 17 13 17 13 1 8 -10 -4 -33 4
-57 19 l-39 26 -6 -28z"/>
<path d="M385 210 c-3 -5 -15 -10 -26 -10 -10 0 -19 -4 -19 -10 0 -19 49 -10
60 10 11 20 -3 30 -15 10z"/>
</g>
</svg>
