<svg id="Layer_1" enable-background="new 0 0 48 48" viewBox="0 0 48 48" xmlns="http://www.w3.org/2000/svg"><g><path d="m24 2c12.1308594 0 22 9.8691406 22 22s-9.8691406 22-22 22-22-9.8691406-22-22 9.8691406-22 22-22z" fill="#f44336"/><path d="m12.4814453 22.6982422 6-7c.71875-.8378906 1.9814453-.9355469 2.8203125-.2167969.8383789.71875.9355469 1.9814453.2167969 2.8203125l-3.1699829 3.6982422h15.6514282c1.1044922 0 2 .8955078 2 2s-.8955078 2-2 2h-15.6514282l3.1699829 3.6982422c.71875.8388672.621582 2.1015625-.2167969 2.8203125-.3774414.3232422-.840332.4814453-1.3007812.4814453-.5634766 0-1.1240234-.2373047-1.5195313-.6982422l-6-7c-.6420898-.7490234-.6420898-1.8544922 0-2.6035156z" fill="#fff"/></g></svg>