<?xml version="1.0"?>
<svg xmlns="http://www.w3.org/2000/svg" id="Line_Epand" data-name="Line Epand" viewBox="0 0 64 64" width="512" height="512"><path d="M49,40H33a1,1,0,0,0-1,1V53a1,1,0,0,0,1,1H49a1,1,0,0,0,1-1V41A1,1,0,0,0,49,40ZM48,52H34V42H48Z"/><path d="M60.9805,31.8037,59,21.9009V4a1,1,0,0,0-1-1H6A1,1,0,0,0,5,4V21.9009L3.02,31.8037A.9833.9833,0,0,0,3,32a5.0059,5.0059,0,0,0,5,5V61a1,1,0,0,0,1,1H55a1,1,0,0,0,1-1V37a5.0059,5.0059,0,0,0,5-5A.9833.9833,0,0,0,60.9805,31.8037ZM57,5V21H7V5ZM51,32a3,3,0,0,1-6,0V23h6ZM13,23h6v9a3,3,0,0,1-6,0Zm8,0h6v9a3,3,0,0,1-6,0Zm8,0h6v9a3,3,0,0,1-6,0Zm8,0h6v9a3,3,0,0,1-6,0ZM5.0015,32.0923,6.82,23H11v9a3,3,0,0,1-5.9985.0923ZM26,60H16V47a5,5,0,0,1,10,0Zm28,0H28V47a7,7,0,0,0-14,0V60H10V36.5734a5.0253,5.0253,0,0,0,2-1.5763,4.9957,4.9957,0,0,0,8,0,4.9957,4.9957,0,0,0,8,0,4.9957,4.9957,0,0,0,8,0,4.9957,4.9957,0,0,0,8,0,4.9957,4.9957,0,0,0,8,0,5.0253,5.0253,0,0,0,2,1.5763Zm2-25a3.0033,3.0033,0,0,1-3-3V23h4.18l1.8183,9.0923A3.0036,3.0036,0,0,1,56,35Z"/><path d="M14,16a1,1,0,0,0-2,0,2.002,2.002,0,0,0,2,2h2a2.002,2.002,0,0,0,2-2V14a2.002,2.002,0,0,0-2-2H14V10h2a1,1,0,0,0,2,0,2.002,2.002,0,0,0-2-2H14a2.002,2.002,0,0,0-2,2v2a2.002,2.002,0,0,0,2,2h2v2Z"/><path d="M48,16a1,1,0,0,0-2,0,2.002,2.002,0,0,0,2,2h2a2.002,2.002,0,0,0,2-2V14a2.002,2.002,0,0,0-2-2H48V10h2a1,1,0,0,0,2,0,2.002,2.002,0,0,0-2-2H48a2.002,2.002,0,0,0-2,2v2a2.002,2.002,0,0,0,2,2h2v2Z"/><path d="M19.7241,17.9614a1.001,1.001,0,0,0,1.124-.4316L22.5,14.8867,24.1519,17.53A1,1,0,0,0,25,18a1.0106,1.0106,0,0,0,.2759-.0386A1,1,0,0,0,26,17V9a1,1,0,0,0-2,0v4.5132l-.6519-1.043a1.0392,1.0392,0,0,0-1.6962,0L21,13.5132V9a1,1,0,0,0-2,0v8A1,1,0,0,0,19.7241,17.9614Z"/><path d="M28,18h3a1,1,0,0,0,0-2H29V14h2a1,1,0,0,0,0-2H29V10h2a1,1,0,0,0,0-2H28a1,1,0,0,0-1,1v8A1,1,0,0,0,28,18Z"/><path d="M40,10h1v7a1,1,0,0,0,2,0V10h1a1,1,0,0,0,0-2H40a1,1,0,0,0,0,2Z"/><path d="M34,18h3a1,1,0,0,0,0-2H35V14h2a1,1,0,0,0,0-2H35V10h2a1,1,0,0,0,0-2H34a1,1,0,0,0-1,1v8A1,1,0,0,0,34,18Z"/></svg>
